<?xml version="1.0" ?><svg viewBox="0 0 64 64" xmlns="http://www.w3.org/2000/svg"><title/><path d="M53.268,13.6A9.494,9.494,0,0,0,46.3,10.676c-.194-.007-.387-.009-.578-.009a14.1,14.1,0,0,0-12.806,7.8c-1.831-6.3-6.059-7.317-8.593-7.317-.31,0-.627.015-.928.045-2.254.207-4.788,1.622-8.25,4.621Q12.3,18.4,9.356,20.989L7.947,22.23a2,2,0,0,0-.259,2.726l4.2,5.421a2,2,0,0,0,2.729.413L16.178,29.7l.066-.046c.225.592.485,1.375.771,2.4L20.268,44c.016.059.067.2.088.261,2.248,6.018,5.5,9.069,9.663,9.069,5.126,0,10.677-3.984,16.964-12.172,5.833-7.519,8.775-13.5,8.994-18.293.182-4.02-.729-7.139-2.708-9.271Zm-1.287,9.09c-.178,3.9.016-.35,0,0-.178,3.9.016-.35,0,0-.178,3.9.016-.35,0,0q-.267,5.852-8.158,16.023-8.158,10.623-13.8,10.623-3.49,0-5.907-6.447l-.01-.024-2.662-9.779c-.684-2.511-1.228-5.523-2.894-7.614a2.008,2.008,0,0,0-.2-.218l-.015-.015a2,2,0,0,0-2.345-.214c-.12.073-.248.152-.388.241l-.012.007c-.143.091-.3.193-.462.3l-.038.025q-.531.353-1.2.823h0L12,23.991h0q2.919-2.57,5.755-5.142l.047-.042.006-.005.029-.026q3.949-3.419,5.927-3.6a5.46,5.46,0,0,1,.579-.027,4.1,4.1,0,0,1,3.849,2.3,13.011,13.011,0,0,1,1.4,4.641q.2,1.275.411,2.549c.571,3.486.976,7.388,2.5,10.626a1.992,1.992,0,0,0,3.259.5,20.105,20.105,0,0,0,2.1-2.864c1.345-2.127,5.36-9.485,0-9.485a7.613,7.613,0,0,0-2.961.657h0a21.688,21.688,0,0,1,.8-2.2q2.175-5.116,6.313-6.594a10.2,10.2,0,0,1,5.98-.344,5.078,5.078,0,0,1,3.694,4.068A15.377,15.377,0,0,1,51.981,22.687ZM34.738,28.506l1.333-.573a21.85,21.85,0,0,1-1.041,1.946c-.007-.033-.015-.066-.022-.1C34.955,29.565,34.869,29.185,34.738,28.506Z"/></svg>